P2
10 10
255
255 255 243 205 125 243 243 240 0 0
255 255 205 243 125 243 243 240 0 0
255 255 243 205 125 243 243 240 0 0
255 255 205 243 125 243 243 240 0 0
255 255 243 205 125 243 243 240 0 0
255 255 205 243 125 243 243 240 0 0
255 255 243 205 125 243 243 240 0 0
255 255 205 243 125 243 243 240 0 0
255 255 243 205 125 243 243 240 0 0
255 255 205 243 125 243 243 240 0 0


