P2
10 10
255
0 0 12 50 130 12 12 15 255 255
0 0 50 12 130 12 12 15 255 255
0 0 12 50 130 12 12 15 255 255
0 0 50 12 130 12 12 15 255 255
0 0 12 50 130 12 12 15 255 255
0 0 50 12 130 12 12 15 255 255
0 0 12 50 130 12 12 15 255 255
0 0 50 12 130 12 12 15 255 255
0 0 12 50 130 12 12 15 255 255
0 0 50 12 130 12 12 15 255 255


