P2
4 4
255
0 33 0 170
0 143 0 0
0 0 63 0
170 0 0 255


