ply
format ascii 1.0
comment --------------------------------------------------
comment Prácticas IG (16-17)
comment perfil de la parte superior de la lata
comment --------------------------------------------------
element vertex 20
property float32 x
property float32 y
property float32 z
element face 0
property list uint8 int32 vertex_indices
end_header
0.220000 1.020000 0.000000
0.220000 1.081200 0.000000
0.209000 1.081200 0.000000
0.209000 1.060000 0.000000
0.209000 1.060000 0.000000
0.195067 1.060000 0.000000
0.181133 1.060000 0.000000
0.167200 1.060000 0.000000
0.153267 1.060000 0.000000
0.139333 1.060000 0.000000
0.125400 1.038800 0.000000
0.111467 1.038800 0.000000
0.097533 1.038800 0.000000
0.083600 1.038800 0.000000
0.069667 1.038800 0.000000
0.055733 1.038800 0.000000
0.041800 1.038800 0.000000
0.027867 1.038800 0.000000
0.013933 1.038800 0.000000
0.000000 1.038800 0.000000
