ply
format ascii 1.0
comment --------------------------------------------------
comment Prácticas IG (16-17)
comment perfil de la parte inferior de la lata
comment --------------------------------------------------
element vertex 16
property float32 x
property float32 y
property float32 z
element face 0
property list uint8 int32 vertex_indices
end_header
0.000000 0.000000 0.000000
0.029857 0.000000 0.000000
0.059714 0.000000 0.000000
0.089571 0.000000 0.000000
0.119429 0.000000 0.000000
0.149286 0.000000 0.000000
0.179143 0.000000 0.000000
0.209000 0.000000 0.000000
0.209000 0.000000 0.000000
0.210571 0.000612 0.000000
0.212143 0.002449 0.000000
0.213714 0.005510 0.000000
0.215286 0.009796 0.000000
0.216857 0.015306 0.000000
0.218429 0.022041 0.000000
0.220000 0.030000 0.000000
